<svg viewBox="0 0 562.72 439.42" xmlns="http://www.w3.org/2000/svg" xmlns:xlink="http://www.w3.org/1999/xlink"><linearGradient id="a" gradientTransform="matrix(.77890032 .62714774 -.62714774 .77890032 201.95 -99.85)" gradientUnits="userSpaceOnUse" x1="91.19" x2="146" y1="302.68" y2="261.27"><stop offset="0" stop-color="#010101" stop-opacity="0"/><stop offset=".95" stop-color="#010101"/></linearGradient><linearGradient id="b" gradientTransform="matrix(.77890032 .62714774 -.62714774 .77890032 193.44 -113.56)" x1="101.96" x2="180.55" xlink:href="#a" y1="293.8" y2="236.35"/><linearGradient id="c" gradientTransform="matrix(.77890032 .62714774 -.62714774 .77890032 184.94 -127.27)" x1="114.75" x2="230.53" xlink:href="#a" y1="285.62" y2="172.13"/><linearGradient id="d" gradientTransform="matrix(.77890032 .62714774 -.62714774 .77890032 176.44 -140.98)" gradientUnits="userSpaceOnUse" x1="129.85" x2="302.91" y1="272.66" y2="113.71"><stop offset="0" stop-color="#010101" stop-opacity="0"/><stop offset=".36" stop-color="#010101" stop-opacity=".36"/><stop offset=".95" stop-color="#010101"/></linearGradient><linearGradient id="e" gradientTransform="matrix(.77890032 .62714774 -.62714774 .77890032 160.56 -166.77)" gradientUnits="userSpaceOnUse" x1="144.04" x2="243.17" y1="261.09" y2="179.94"><stop offset="0" stop-color="#fff" stop-opacity="0"/><stop offset=".07" stop-color="#fff" stop-opacity=".22"/><stop offset=".16" stop-color="#fff" stop-opacity=".45"/><stop offset=".25" stop-color="#fff" stop-opacity=".65"/><stop offset=".33" stop-color="#fff" stop-opacity=".8"/><stop offset=".4" stop-color="#fff" stop-opacity=".91"/><stop offset=".46" stop-color="#fff" stop-opacity=".98"/><stop offset=".51" stop-color="#fff"/></linearGradient><linearGradient id="f" gradientTransform="matrix(.77890032 .62714774 -.62714774 .77890032 152.05 -180.48)" x1="149.21" x2="203.49" xlink:href="#e" y1="257.97" y2="211.09"/><linearGradient id="g" x1="281.09" x2="288.14" xlink:href="#a" y1="352.88" y2="293.67"/><linearGradient id="h" x1="286.55" x2="283.73" xlink:href="#e" y1="163.37" y2="377.68"/><linearGradient id="i" x1="281.79" x2="284.96" xlink:href="#a" y1="345.2" y2="409.44"/><linearGradient id="j" x1="423.51" x2="567.32" xlink:href="#a" y1="258.04" y2="269.67"/><linearGradient id="k" x1="427.71" x2="442.37" xlink:href="#e" y1="137.08" y2="138.14"/><linearGradient id="l" x1="431.4" x2="436.47" xlink:href="#a" y1="129.69" y2="130.05"/><linearGradient id="m" x1="433.31" x2="434.11" xlink:href="#a" y1="357" y2="388.72"/><linearGradient id="n" x1="447.88" x2="415.89" xlink:href="#a" y1="393.39" y2="424.05"/><linearGradient id="o" x1="426.59" x2="681.94" xlink:href="#a" y1="242.89" y2="234.96"/><linearGradient id="p" x1="442.96" x2="543.64" xlink:href="#e" y1="100.87" y2="97.74"/><linearGradient id="q" x1="442.96" x2="543.64" xlink:href="#e" y1="108.14" y2="105.01"/><linearGradient id="r" x1="442.96" x2="543.64" xlink:href="#e" y1="115.41" y2="112.28"/><linearGradient id="s" x1="442.96" x2="543.64" xlink:href="#e" y1="122.68" y2="119.55"/><linearGradient id="t" x1="442.96" x2="543.64" xlink:href="#e" y1="129.95" y2="126.82"/><linearGradient id="u" x1="442.96" x2="543.64" xlink:href="#e" y1="137.21" y2="134.09"/><linearGradient id="v" x1="442.96" x2="543.64" xlink:href="#e" y1="144.48" y2="141.36"/><linearGradient id="w" x1="442.96" x2="543.64" xlink:href="#e" y1="151.75" y2="148.63"/><linearGradient id="x" x1="442.96" x2="543.64" xlink:href="#e" y1="159.02" y2="155.9"/><linearGradient id="y" x1="442.96" x2="543.64" xlink:href="#e" y1="166.29" y2="163.16"/><linearGradient id="z" x1="442.96" x2="543.64" xlink:href="#e" y1="173.56" y2="170.43"/><linearGradient id="A" x1="442.96" x2="543.64" xlink:href="#e" y1="180.83" y2="177.7"/><linearGradient id="B" x1="442.96" x2="543.64" xlink:href="#e" y1="188.1" y2="184.97"/><linearGradient id="C" x1="442.96" x2="543.64" xlink:href="#e" y1="195.37" y2="192.24"/><linearGradient id="D" x1="442.96" x2="543.64" xlink:href="#e" y1="202.64" y2="199.51"/><linearGradient id="E" x1="442.96" x2="543.64" xlink:href="#e" y1="209.91" y2="206.78"/><linearGradient id="F" x1="442.96" x2="543.64" xlink:href="#e" y1="217.18" y2="214.05"/><linearGradient id="G" x1="442.96" x2="543.64" xlink:href="#e" y1="224.45" y2="221.32"/><linearGradient id="H" x1="442.96" x2="543.64" xlink:href="#e" y1="231.71" y2="228.59"/><linearGradient id="I" x1="442.96" x2="543.64" xlink:href="#e" y1="238.98" y2="235.86"/><linearGradient id="J" x1="442.96" x2="543.64" xlink:href="#e" y1="246.25" y2="243.13"/><linearGradient id="K" x1="442.96" x2="543.64" xlink:href="#e" y1="253.52" y2="250.4"/><linearGradient id="L" x1="442.96" x2="543.64" xlink:href="#e" y1="260.79" y2="257.67"/><linearGradient id="M" x1="442.96" x2="543.64" xlink:href="#e" y1="268.06" y2="264.93"/><linearGradient id="N" x1="442.96" x2="543.64" xlink:href="#e" y1="275.33" y2="272.2"/><linearGradient id="O" x1="442.96" x2="543.64" xlink:href="#e" y1="282.6" y2="279.47"/><linearGradient id="P" x1="442.96" x2="543.64" xlink:href="#e" y1="289.87" y2="286.74"/><linearGradient id="Q" x1="442.96" x2="543.64" xlink:href="#e" y1="297.14" y2="294.01"/><linearGradient id="R" x1="442.96" x2="543.64" xlink:href="#e" y1="304.41" y2="301.28"/><linearGradient id="S" x1="442.96" x2="543.64" xlink:href="#e" y1="311.68" y2="308.55"/><linearGradient id="T" x1="442.96" x2="543.64" xlink:href="#e" y1="318.95" y2="315.82"/><linearGradient id="U" x1="442.96" x2="543.64" xlink:href="#e" y1="326.22" y2="323.09"/><linearGradient id="V" x1="442.96" x2="543.64" xlink:href="#e" y1="333.48" y2="330.36"/><linearGradient id="W" x1="442.96" x2="543.64" xlink:href="#e" y1="340.75" y2="337.63"/><linearGradient id="X" x1="442.96" x2="543.64" xlink:href="#e" y1="348.02" y2="344.9"/><linearGradient id="Y" x1="442.96" x2="543.64" xlink:href="#e" y1="355.29" y2="352.17"/><linearGradient id="Z" x1="442.96" x2="543.64" xlink:href="#e" y1="362.56" y2="359.44"/><linearGradient id="aa" x1="442.96" x2="543.64" xlink:href="#e" y1="369.83" y2="366.7"/><linearGradient id="ab" x1="442.96" x2="543.64" xlink:href="#e" y1="377.1" y2="373.97"/><linearGradient id="ac" x1="442.96" x2="543.64" xlink:href="#e" y1="384.37" y2="381.24"/><linearGradient id="ad" x1="39.44" x2="1737.77" xlink:href="#e" y1="206.38" y2="153.63"/><linearGradient id="ae" x1="180.65" x2="183.82" xlink:href="#e" y1="162.61" y2="361.93"/><linearGradient id="af" x1="280.34" x2="278.56" xlink:href="#e" y1="181.75" y2="317.15"/><linearGradient id="ag" x1="252.08" x2="258.77" xlink:href="#a" y1="269.03" y2="-2.71"/><linearGradient id="ah" x1="251.59" x2="258.28" xlink:href="#a" y1="269.02" y2="-2.72"/><linearGradient id="ai" x1="207.09" x2="213.79" xlink:href="#a" y1="267.92" y2="-3.82"/><linearGradient id="aj" x1="206.6" x2="213.3" xlink:href="#a" y1="267.91" y2="-3.83"/><linearGradient id="ak" x1="251.05" x2="257.75" xlink:href="#a" y1="269.01" y2="-2.73"/><linearGradient id="al" x1="207.2" x2="213.89" xlink:href="#a" y1="267.93" y2="-3.81"/><linearGradient id="am" x1="229.48" x2="236.18" xlink:href="#a" y1="268.47" y2="-3.26"/><linearGradient id="an" x1="230.52" x2="237.22" xlink:href="#a" y1="268.5" y2="-3.24"/><linearGradient id="ao" x1="227.11" x2="344.74" xlink:href="#e" y1="250.42" y2="348.22"/><linearGradient id="ap" x1="371.69" x2="370.84" xlink:href="#e" y1="174.65" y2="238.96"/><linearGradient id="aq" x1="371.69" x2="370.84" xlink:href="#e" y1="226.46" y2="290.77"/><linearGradient id="ar" x1="181.92" x2="181.81" xlink:href="#e" y1="191.35" y2="199.68"/><linearGradient id="as" gradientTransform="matrix(.77890032 .62714774 -.62714774 .77890032 143.98 -21.91)" x1="95.3" x2="150.1" xlink:href="#a" y1="199.15" y2="157.73"/><linearGradient id="at" gradientTransform="matrix(.77890032 .62714774 -.62714774 .77890032 140.64 -31.47)" x1="106.06" x2="184.66" xlink:href="#a" y1="190.27" y2="132.82"/><linearGradient id="au" gradientTransform="matrix(.77890032 .62714774 -.62714774 .77890032 137.31 -41.03)" x1="118.85" x2="234.63" xlink:href="#a" y1="182.09" y2="68.6"/><linearGradient id="av" gradientTransform="matrix(.77890032 .62714774 -.62714774 .77890032 133.97 -50.59)" x1="133.96" x2="307.01" xlink:href="#d" y1="169.13" y2="10.17"/><linearGradient id="aw" x1="148.35" x2="232.52" xlink:href="#e" y1="128.74" y2="59.83"/><linearGradient id="ax" gradientTransform="matrix(.77890032 .62714774 -.62714774 .77890032 124.42 -78.13)" x1="153.32" x2="207.59" xlink:href="#e" y1="154.43" y2="107.56"/><linearGradient id="ay" x1="126.16" x2="144.93" xlink:href="#e" y1="213.1" y2="213.63"/><linearGradient id="az" x1="103.09" x2="151.73" xlink:href="#a" y1="200.75" y2="206.3"/><linearGradient id="aA" x1="103.9" x2="151.95" xlink:href="#a" y1="246.5" y2="251.98"/><linearGradient id="aB" x1="266.18" x2="246.09" xlink:href="#a" y1="394.35" y2="300.95"/><linearGradient id="aC" x1="301.35" x2="220.46" xlink:href="#a" y1="376.83" y2="443.97"/><path d="m122.82 59.33c-45.3 38.05-52.32 110-83 163.08-10.68 18.47-24.48 35-31.68 55.49-16.53 46.9 6.22 100.1 36.67 137.35 14.52 17.77 31.48 34.05 52 41.54 15.78 5.76 32.7 6 49.31 6.15l291 3c32.49.33 68.59-.86 91.95-26 16.1-17.31 22.64-42.59 28.19-66.72 6.82-29.65 13-61.85 2.39-90.09-12.12-32.31-42.77-50.62-61.81-78.5-30.9-45.17-30.19-113.49-69.54-149.55-18.37-16.83-42.61-23.43-66.23-26.73-44.53-6.23-86.71 5.53-130.44 3.89-37.38-1.4-77.8 1.04-108.81 27.09z" fill="#68e1fd" opacity=".24" transform="translate(-2.57 -26.51)"/><path d="m152.08 404.87c-22.16 2.21-45 4.64-64.5 15.45-2.61 1.45-5.26 3.16-6.7 5.77-2.89 5.25.39 12.17 5.48 15.33s11.37 3.52 17.36 3.78c106.66 4.61 213.48 2.8 320.23 1 31-.52 62.49-1.12 92.2-10.05 5.34-1.6 11.21-4 13.22-9.23 2.63-6.84-3.37-14.42-10.37-16.55s-14.47-.54-21.71.39c-25.14 3.23-50.5-1.71-75.53-5.66-49-7.72-99.84-14-149.47-15.17-16.92-.39-31.37 5.43-47.93 7.73-23.91 3.34-48.24 4.81-72.28 7.21z" fill="#68e1fd" opacity=".24" transform="translate(-2.57 -26.51)"/><path d="m46.97 131.75h125.5v36.65h-125.5z" fill="#fff" transform="matrix(.44025261 -.89787395 .89787395 .44025261 -75.9 156.01)"/><path d="m85.24 181.07h15.33v24.67h-15.33z" fill="#68e1fd" transform="matrix(.43915533 -.89841115 .89841115 .43915533 -124.23 165.43)"/><path d="m85.24 181.07h15.33v24.67h-15.33z" fill="url(#a)" transform="matrix(.43915533 -.89841115 .89841115 .43915533 -124.23 165.43)"/><path d="m91.97 167.41h15.33v24.67h-15.33z" fill="#68e1fd" transform="matrix(.43915533 -.89841115 .89841115 .43915533 -108.18 163.81)"/><path d="m91.97 167.41h15.33v24.67h-15.33z" fill="url(#b)" transform="matrix(.43915533 -.89841115 .89841115 .43915533 -108.18 163.81)"/><path d="m98.7 153.74h15.33v24.67h-15.33z" fill="#68e1fd" transform="matrix(.43915533 -.89841115 .89841115 .43915533 -92.13 162.19)"/><path d="m98.7 153.74h15.33v24.67h-15.33z" fill="url(#c)" transform="matrix(.43915533 -.89841115 .89841115 .43915533 -92.13 162.19)"/><path d="m105.43 140.08h15.33v24.67h-15.33z" fill="#68e1fd" transform="matrix(.43915533 -.89841115 .89841115 .43915533 -76.07 160.58)"/><path d="m105.43 140.08h15.33v24.67h-15.33z" fill="url(#d)" transform="matrix(.43915533 -.89841115 .89841115 .43915533 -76.07 160.58)"/><path d="m112.17 126.41h15.33v24.67h-15.33z" fill="#68e1fd" transform="matrix(.43915533 -.89841115 .89841115 .43915533 -60.02 158.96)"/><path d="m118.9 112.75h15.33v24.67h-15.33z" fill="#68e1fd" transform="matrix(.43915533 -.89841115 .89841115 .43915533 -43.97 157.35)"/><path d="m125.63 99.08h15.33v24.67h-15.33z" fill="#68e1fd" transform="matrix(.43915533 -.89841115 .89841115 .43915533 -27.92 155.73)"/><path d="m118.14 114.46h15.33v24.67h-15.33z" fill="url(#e)" transform="matrix(.43915533 -.89841115 .89841115 .43915533 -45.93 157.63)"/><path d="m124.88 100.8h15.33v24.67h-15.33z" fill="url(#f)" transform="matrix(.43915533 -.89841115 .89841115 .43915533 -29.88 156.01)"/><path d="m259 323.78h46.52v38.42h-46.52z" fill="#68e1fd"/><path d="m259 323.78h46.52v38.42h-46.52z" fill="url(#g)"/><rect fill="#68e1fd" height="169.75" rx="9.37" width="246.85" x="159.68" y="160.02"/><path d="m401.63 201.47v140.22a8.76 8.76 0 0 1 -8.75 8.79h-215.52a8.77 8.77 0 0 1 -8.75-8.79v-140.22a8.77 8.77 0 0 1 8.75-8.79h215.52a8.76 8.76 0 0 1 8.75 8.79z" fill="url(#h)" opacity=".65" transform="translate(-2.57 -26.51)"/><path d="m237.15 358.32h98.33v10.22h-98.33z" fill="#68e1fd"/><path d="m259.05 353.03h46.52v5.42h-46.52z" fill="url(#i)"/><path d="m335.61 114.12v-9.77h-6.49a27.65 27.65 0 0 0 -4.1-9.57l5-5-6.87-6.94-5 4.92a28.07 28.07 0 0 0 -11-4.81v-6.87h-9.76v6.72a26.45 26.45 0 0 0 -11 4.17l-4-4.17-7.06 6.8 3.91 4.05a27.36 27.36 0 0 0 -5 10.7h-7v9.77h6.76a27.6 27.6 0 0 0 4.92 12.54l-4.21 4.13 6.91 7 4.24-4.21a27.44 27.44 0 0 0 11.61 4.55v6.19h9.76v-6.34a28 28 0 0 0 10.37-4.36l5.07 5.26 7.06-6.8-5.15-5.33a27.36 27.36 0 0 0 5-12.58zm-33.91 12.88a16.47 16.47 0 1 1 16.49-16.45 16.44 16.44 0 0 1 -16.49 16.45z" fill="#68e1fd" transform="translate(-2.57 -26.51)"/><path d="m371.4 127.19.44-5.78-3.85-.28a16.11 16.11 0 0 0 -2-5.85l3.2-2.73-3.76-4.41-3.17 2.69a16.48 16.48 0 0 0 -6.26-3.33l.31-4.07-5.77-.43-.3 4a15.8 15.8 0 0 0 -6.67 2l-2.17-2.64-4.48 3.7 2.13 2.57a16.34 16.34 0 0 0 -3.41 6.11l-4.13-.31-.43 5.77 3.89.3a16.31 16.31 0 0 0 2.35 7.63l-2.67 2.26 3.77 4.41 2.7-2.3a16.27 16.27 0 0 0 6.66 3.21l-.28 3.66 5.77.43.29-3.75a16.64 16.64 0 0 0 6.32-2.11l2.76 3.33 4.48-3.7-2.81-3.39a16.16 16.16 0 0 0 3.49-7.21zm-20.62 6.08a9.76 9.76 0 1 1 10.48-9 9.74 9.74 0 0 1 -10.48 9z" fill="#68e1fd" transform="translate(-2.57 -26.51)"/><path d="m445.57 175.14v231a8.71 8.71 0 0 1 -8.68 8.68h-1a8.68 8.68 0 0 1 -8.64-8.68v-231l8.71-22.9z" fill="#68e1fd" transform="translate(-2.57 -26.51)"/><path d="m433.11 148.61h9.87v221.21h-9.87z" fill="url(#j)"/><path d="m443.07 148.97-18.4-.34 5.67-14.91 3.04-8 3.34 8z" fill="url(#k)" opacity=".65"/><path d="m436.72 133.72h-6.38l3.04-8z" fill="url(#l)"/><path d="m424.26 366.12h18.77v7.93h-18.77z" fill="url(#m)"/><path d="m445.57 399v7.17a8.71 8.71 0 0 1 -8.68 8.68h-1a8.68 8.68 0 0 1 -8.64-8.68v-7.17z" fill="url(#n)" transform="translate(-2.57 -26.51)"/><path d="m450.56 95.04h49.34v293.94h-49.34z" fill="#68e1fd"/><path d="m450.56 94.51h25.91v294.47h-25.91z" fill="url(#o)"/><path d="m450.65 99.23h13.75v2.38h-13.75z" fill="url(#p)" opacity=".65"/><path d="m450.65 106.5h13.75v2.38h-13.75z" fill="url(#q)" opacity=".65"/><path d="m450.65 113.76h13.75v2.38h-13.75z" fill="url(#r)" opacity=".65"/><path d="m450.65 121.03h13.75v2.38h-13.75z" fill="url(#s)" opacity=".65"/><path d="m450.65 128.3h13.75v2.38h-13.75z" fill="url(#t)" opacity=".65"/><path d="m450.65 135.57h13.75v2.38h-13.75z" fill="url(#u)" opacity=".65"/><path d="m450.65 142.84h13.75v2.38h-13.75z" fill="url(#v)" opacity=".65"/><path d="m450.65 150.11h13.75v2.38h-13.75z" fill="url(#w)" opacity=".65"/><path d="m450.65 157.38h13.75v2.38h-13.75z" fill="url(#x)" opacity=".65"/><path d="m450.65 164.65h13.75v2.38h-13.75z" fill="url(#y)" opacity=".65"/><path d="m450.65 171.92h13.75v2.38h-13.75z" fill="url(#z)" opacity=".65"/><path d="m450.65 179.19h13.75v2.38h-13.75z" fill="url(#A)" opacity=".65"/><path d="m450.65 186.46h13.75v2.38h-13.75z" fill="url(#B)" opacity=".65"/><path d="m450.65 193.73h13.75v2.38h-13.75z" fill="url(#C)" opacity=".65"/><path d="m450.65 201h13.75v2.38h-13.75z" fill="url(#D)" opacity=".65"/><path d="m450.65 208.27h13.75v2.38h-13.75z" fill="url(#E)" opacity=".65"/><path d="m450.65 215.53h13.75v2.38h-13.75z" fill="url(#F)" opacity=".65"/><path d="m450.65 222.8h13.75v2.38h-13.75z" fill="url(#G)" opacity=".65"/><path d="m450.65 230.07h13.75v2.38h-13.75z" fill="url(#H)" opacity=".65"/><path d="m450.65 237.34h13.75v2.38h-13.75z" fill="url(#I)" opacity=".65"/><path d="m450.65 244.61h13.75v2.38h-13.75z" fill="url(#J)" opacity=".65"/><path d="m450.65 251.88h13.75v2.38h-13.75z" fill="url(#K)" opacity=".65"/><path d="m450.65 259.15h13.75v2.38h-13.75z" fill="url(#L)" opacity=".65"/><path d="m450.65 266.42h13.75v2.38h-13.75z" fill="url(#M)" opacity=".65"/><path d="m450.65 273.69h13.75v2.38h-13.75z" fill="url(#N)" opacity=".65"/><path d="m450.65 280.96h13.75v2.38h-13.75z" fill="url(#O)" opacity=".65"/><path d="m450.65 288.23h13.75v2.38h-13.75z" fill="url(#P)" opacity=".65"/><path d="m450.65 295.5h13.75v2.38h-13.75z" fill="url(#Q)" opacity=".65"/><path d="m450.65 302.77h13.75v2.38h-13.75z" fill="url(#R)" opacity=".65"/><path d="m450.65 310.04h13.75v2.38h-13.75z" fill="url(#S)" opacity=".65"/><path d="m450.65 317.3h13.75v2.38h-13.75z" fill="url(#T)" opacity=".65"/><path d="m450.65 324.57h13.75v2.38h-13.75z" fill="url(#U)" opacity=".65"/><path d="m450.65 331.84h13.75v2.38h-13.75z" fill="url(#V)" opacity=".65"/><path d="m450.65 339.11h13.75v2.38h-13.75z" fill="url(#W)" opacity=".65"/><path d="m450.65 346.38h13.75v2.38h-13.75z" fill="url(#X)" opacity=".65"/><path d="m450.65 353.65h13.75v2.38h-13.75z" fill="url(#Y)" opacity=".65"/><path d="m450.65 360.92h13.75v2.38h-13.75z" fill="url(#Z)" opacity=".65"/><path d="m450.65 368.19h13.75v2.38h-13.75z" fill="url(#aa)" opacity=".65"/><path d="m450.65 375.46h13.75v2.38h-13.75z" fill="url(#ab)" opacity=".65"/><path d="m450.65 382.73h13.75v2.38h-13.75z" fill="url(#ac)" opacity=".65"/><path d="m401.63 201.47v3.08h-233v-3.08a8.77 8.77 0 0 1 8.75-8.79h215.5a8.76 8.76 0 0 1 8.75 8.79z" fill="url(#ad)" transform="translate(-2.57 -26.51)"/><path d="m170.89 192.85h22.2v108.38h-22.2z" fill="url(#ae)"/><path d="m226.58 200.07h105.73v100.1h-105.73z" fill="url(#af)"/><path d="m250.54 247.3h4.03v4.23h-4.03z" fill="url(#ag)"/><path d="m250.54 227.39h4.03v4.23h-4.03z" fill="url(#ah)"/><path d="m205.53 247.3h4.03v4.23h-4.03z" fill="url(#ai)"/><path d="m205.53 227.39h4.03v4.23h-4.03z" fill="url(#aj)"/><path d="m250.54 205.53h4.03v4.23h-4.03z" fill="url(#ak)"/><path d="m206.67 205.53h4.03v4.23h-4.03z" fill="url(#al)"/><path d="m228.97 205.53h4.03v4.23h-4.03z" fill="url(#am)"/><path d="m228.97 247.65h4.03v4.23h-4.03z" fill="url(#an)"/><path d="m251.82 273.22h-37.23v-35.47h37.23zm-33.48-3.75h29.73v-28h-29.73z" fill="#68e1fd" transform="translate(-2.57 -26.51)"/><path d="m251.82 273.22h-37.23v-35.47h37.23zm-33.48-3.75h29.73v-28h-29.73z" fill="url(#ao)" transform="translate(-2.57 -26.51)"/><path d="m347.47 183.33h47.58v47.58h-47.58z" fill="url(#ap)"/><path d="m347.47 235.14h47.58v47.58h-47.58z" fill="url(#aq)"/><path d="m170.49 192.58h22.73v5.95h-22.73z" fill="url(#ar)" opacity=".65"/><path d="m73.93 142.85h125.5v36.65h-125.5z" fill="#fff" transform="matrix(.77966595 -.62619567 .62619567 .77966595 -73.38 94.58)"/><path d="m95.4 180.94h15.33v24.67h-15.33z" fill="#68e1fd" transform="matrix(.78 -.63 .63 .78 -100.99 80.84)"/><path d="m95.4 180.94h15.33v24.67h-15.33z" fill="url(#as)" transform="matrix(.78 -.63 .63 .78 -100.99 80.84)"/><path d="m107.29 171.43h15.33v24.67h-15.33z" fill="#68e1fd" transform="matrix(.77890032 -.62714774 .62714774 .77890032 -92.4 86.19)"/><path d="m107.29 171.43h15.33v24.67h-15.33z" fill="url(#at)" transform="matrix(.77890032 -.62714774 .62714774 .77890032 -92.4 86.19)"/><path d="m119.19 161.91h15.33v24.67h-15.33z" fill="#68e1fd" transform="matrix(.77890032 -.62714774 .62714774 .77890032 -83.8 91.55)"/><path d="m119.19 161.91h15.33v24.67h-15.33z" fill="url(#au)" transform="matrix(.77890032 -.62714774 .62714774 .77890032 -83.8 91.55)"/><path d="m131.08 152.39h15.33v24.67h-15.33z" fill="#68e1fd" transform="matrix(.77890032 -.62714774 .62714774 .77890032 -75.2 96.91)"/><path d="m131.08 152.39h15.33v24.67h-15.33z" fill="url(#av)" transform="matrix(.77890032 -.62714774 .62714774 .77890032 -75.2 96.91)"/><path d="m142.98 142.88h15.33v24.67h-15.33z" fill="#68e1fd" transform="matrix(.78 -.63 .63 .78 -66.61 102.26)"/><path d="m154.96 133.18h15.33v24.67h-15.33z" fill="#68e1fd" transform="matrix(.78 -.63 .63 .78 -57.88 107.63)"/><path d="m166.77 123.84h15.33v24.67h-15.33z" fill="#68e1fd" transform="matrix(.77890032 -.62714774 .62714774 .77890032 -49.41 112.97)"/><path d="m172.21 125.32-10.22 8.02-15.47-19.22 10.22-8.02z" fill="url(#aw)"/><path d="m165.36 125.08h15.33v24.67h-15.33z" fill="url(#ax)" transform="matrix(.77890032 -.62714774 .62714774 .77890032 -50.5 112.36)"/><path d="m135.42 189.9v59.1h-10.33v-59.1a5.12 5.12 0 0 1 3.45-4.84v-5.9a1.84 1.84 0 0 1 3.68 0v6a5.15 5.15 0 0 1 3.2 4.74z" fill="#68e1fd" transform="translate(-2.57 -26.51)"/><path d="m135.42 189.9v59.1h-10.33v-59.1a5.12 5.12 0 0 1 3.45-4.84v-5.9a1.84 1.84 0 0 1 3.68 0v6a5.15 5.15 0 0 1 3.2 4.74z" fill="url(#ay)" transform="translate(-2.57 -26.51)"/><rect fill="#68e1fd" height="4.49" rx="2.25" width="23.53" x="115.91" y="201.3"/><path d="m130.47 267.64c-4.09 0-7.49-6.13-7.49-10.22v-27.09h14.8v27.09c0 4.09-3.23 10.22-7.31 10.22z" fill="#68e1fd" transform="translate(-2.57 -26.51)"/><rect fill="url(#az)" height="4.49" rx="2.25" width="23.53" x="115.91" y="201.3"/><g transform="translate(-2.57 -26.51)"><path d="m130.47 267.64c-4.09 0-7.49-6.13-7.49-10.22v-25.2h14.8v25.2c0 4.09-3.23 10.22-7.31 10.22z" fill="url(#aA)"/><path d="m226 296.32c-.38-1.95-.62-4.71.11-4.9 1.54-.42-.11 4.9-.11 4.9z" fill="#28353d"/><path d="m293.82 388.71c-.23 6-4.85 28.05-5 34.06 0 2 .53 5.07-.11 7-1.32 4.09-6 3.53-6.61 1.12l-.23-1.2c-2.17-11.68 1.32-24.93 0-40.18-.79-9.31-4.47-27.26-6.88-27.38-1.27 0-30.26 61.52-32.78 65.31-1.24 1.91-4.73 1.61-6.42 3.15s14.08-46.64 20.69-72.1a81.06 81.06 0 0 0 3-16.11c.18-3.15-.83-4.21 2.06-5.14 2-.64 4.77-.46 6.91-.61 2.33-.18 24-.22 24 1.32-.21 8.36 1.93 36.9 1.37 50.76z" fill="#606161"/><path d="m293.82 388.71c-.23 6-4.85 28.05-5 34.06 0 2 .53 5.07-.11 7-1.32 4.09-6 3.53-6.61 1.12l-.23-1.2c-2.17-11.68 1.32-24.93 0-40.18-.79-9.31-4.47-27.26-6.88-27.38-1.27 0-30.26 61.52-32.78 65.31-1.24 1.91-4.73 1.61-6.42 3.15s14.08-46.64 20.69-72.1a81.06 81.06 0 0 0 3-16.11c.18-3.15-.83-4.21 2.06-5.14 2-.64 4.77-.46 6.91-.61 2.33-.18 24-.22 24 1.32-.21 8.36 1.93 36.9 1.37 50.76z" fill="url(#aB)"/><path d="m268.42 260.72c-.18-1.88-1.06-2.9-1.92-2.9s-1.39 1-1.21 2.9a2.87 2.87 0 0 0 2.48 2.76c.87 0 .84-.88.65-2.76z" fill="#ffcd9c"/><path d="m284.38 260.83c.12-1.88 1-2.9 1.91-2.9s1.5 1 1.36 2.9a2.79 2.79 0 0 1 -2.5 2.75c-.9 0-.91-.87-.77-2.75z" fill="#ffcd9c"/><path d="m285.62 268.81c-.12 1-4.25 5.38-8.95 5.38s-8.58-4-9.4-5.6 2.48-22.18 4.39-23.9 9.65-.59 10.3.32c1.56 2.15 4.17 19.81 3.66 23.8z" fill="#f4ad7d"/><path d="m283.72 253.62c-.68.32-3.35-6.35-3.91-7.47s-.47-2.27.21-2.59 1.68.34 2.24 1.45 2.13 8.3 1.46 8.61z" fill="#ffcd9c"/><path d="m269.33 253.12c-.71-.23 1.17-7 1.58-8.17s1.33-1.94 2-1.71.95 1.37.54 2.55-3.45 7.56-4.12 7.33z" fill="#ffcd9c"/><path d="m271.5 268.34h10.61l1.59 9.37c-5.78 2.9-9.15 2.58-13.66-.64z" fill="#f4ad7d"/><path d="m275.7 270.12c0-.19.38-.35.84-.35s.84.16.84.35-.37.22-.84.22-.84-.02-.84-.22z" fill="#f4ad7d"/><path d="m286.1 265.4c.38-2.3 1-18.77-.52-20.95s-10.62-3.59-12-3.25c-3.09.76-2.55 3-2.55 3a5.32 5.32 0 0 0 -2.61.73c-1.06.72-3.29 11.1-1.51 18.95.8 3.53 3.95 6.6 9.39 6.75 6.7.18 9.34-2.38 9.8-5.23z" fill="#606161"/><path d="m273.81 241.82a3.57 3.57 0 0 1 2.66-.81 23.23 23.23 0 0 1 8.52 1.57 10.53 10.53 0 0 1 4 2.51 5.16 5.16 0 0 1 1.41 4.39c-.5 2.36-3 3.82-3.82 6.09-.66 1.82-.19 3.58-.17 5.41a27.31 27.31 0 0 1 -.32 4.42c-.46 2.85-3.09 5.41-9.84 5.24-5.44-.15-8.59-3.22-9.39-6.75a38.71 38.71 0 0 1 .83-17.62 39.25 39.25 0 0 0 8.94 1 38.56 38.56 0 0 0 9.47-1.1c.53 3.06.52 9.19.35 13.77" fill="#606161"/><path d="m257.19 276.24a9.94 9.94 0 0 0 -4.62 1.59c-2.37 1.86-2.55 5.33-2.51 8.35a70.57 70.57 0 0 0 .87 12.5c.71 3.79 2 7.43 3.06 11.14a72.14 72.14 0 0 1 2.61 18.53c0 3.44-.06 7.22 2.09 9.91 2.35 2.92 6.51 3.49 10.25 3.7 5.31.31 10.64.35 15.95.13 3.56-.16 7.35-.51 10.17-2.69 2.25-1.74 7.52-60.61 3.43-62.1s-8.49-1.87-12.83-2.23c-9.73-.82-18.89-1.47-28.47 1.17z" fill="#68e1fd"/><path d="m286.79 398.77c-.52 6.69-1.76 31-1.76 31l-3.16-.11c-2.17-11.68 1.32-24.93 0-40.18-.79-9.31-4.47-27.26-6.88-27.38.72-6 4.77-5.1 4.77-5.1a87.72 87.72 0 0 1 7.59 13.93c2.41 6.32-.03 21.12-.56 27.84z" fill="url(#aC)"/><path d="m227.24 429.77a3.17 3.17 0 0 0 -1.08 1.46 2.27 2.27 0 0 0 .13 1.43 4.12 4.12 0 0 0 2.87 2.23 12.08 12.08 0 0 0 3.75.13l4-.27a11.05 11.05 0 0 0 3-.49 3.69 3.69 0 0 0 2.22-1.92 5.16 5.16 0 0 0 .27-2.11c0-3.31-1.16-6-4.78-5.19a23.83 23.83 0 0 0 -10.38 4.73z" fill="#68e1fd"/><path d="m293.66 431.08a2.8 2.8 0 0 1 .95 1.29 2 2 0 0 1 -.11 1.25 3.58 3.58 0 0 1 -2.52 1.95 10.36 10.36 0 0 1 -3.29.12l-3.48-.24a9.62 9.62 0 0 1 -2.61-.42 3.22 3.22 0 0 1 -1.94-1.69 4.59 4.59 0 0 1 -.24-1.85c0-2.9 1-5.29 4.19-4.55a20.81 20.81 0 0 1 9.05 4.14z" fill="#68e1fd"/><path d="m298.49 277.3s15.25 9.2 19.83 20.83-15 39.66-15 39.66l-4.19-4.41s10.22-21.15 8.64-26.44-7.77-10.22-7.77-10.22z" fill="#68e1fd"/><path d="m253.65 295.66s-21.68 9.7-30.49 4.94.26-28.67.26-28.67l5.9 2s-4.93 12.19.71 14 22.54-10.08 22.54-10.08z" fill="#68e1fd"/><path d="m294.47 336.68a4.44 4.44 0 0 0 -1.43 1.65 4 4 0 0 0 -.21 1.75 4.79 4.79 0 0 0 1.66 3.75 5.64 5.64 0 0 0 2.5.74 4.7 4.7 0 0 0 1.63 0 1.65 1.65 0 0 0 1.22-1 4 4 0 0 0 .09-1c.07-1.65 1.23-3 2.19-4.35a1.77 1.77 0 0 0 .43-.93 1.71 1.71 0 0 0 -.38-1.05c-.65-.94-2.26-2.67-3.55-2.52s-3.15 2.14-4.15 2.96z" fill="#f4ad7d"/><path d="m232.91 268.88a3.41 3.41 0 0 0 .54-1.31 1.16 1.16 0 0 0 -.61-1.19c-.69-.27-1.51.44-2.19.14a1.53 1.53 0 0 1 -.56-.54 7.56 7.56 0 0 1 -1.33-3.94 8 8 0 0 0 -.2-2.24 1.59 1.59 0 0 0 -1.7-1.17c-.64.15-1 .8-1.4 1.32s-1.2 1.14-1.72 1.79a8.85 8.85 0 0 0 -1.47 4.49c-.28 2-.46 4.29.94 5.73 1.08 1.11 4.37 2.42 5.88 1.83 1.67-.66 2.98-3.47 3.82-4.91z" fill="#f4ad7d"/></g></svg>