<svg viewBox="0 0 606.82 502.83" xmlns="http://www.w3.org/2000/svg" xmlns:xlink="http://www.w3.org/1999/xlink"><linearGradient id="a" gradientTransform="matrix(-1 0 0 1 -607.15 0)" gradientUnits="userSpaceOnUse" x1="-791.14" x2="-777.51" y1="373.56" y2="46.42"><stop offset="0" stop-color="#fff" stop-opacity="0"/><stop offset=".95" stop-color="#fff"/></linearGradient><linearGradient id="b" gradientUnits="userSpaceOnUse" x1="293.03" x2="225.47" y1="371.65" y2="1827.95"><stop offset="0" stop-color="#010101" stop-opacity="0"/><stop offset=".95" stop-color="#010101"/></linearGradient><linearGradient id="c" x1="242.97" x2="369.96" xlink:href="#a" y1="739.91" y2="-27.54"/><linearGradient id="d" x1="284.96" x2="288.97" xlink:href="#a" y1="386.78" y2="362.54"/><linearGradient id="e" x1="285.34" x2="296.39" xlink:href="#b" y1="398.18" y2="432.17"/><linearGradient id="f" x1="291.73" x2="295.27" xlink:href="#b" y1="418.95" y2="446.48"/><linearGradient id="g" x1="286.48" x2="255" xlink:href="#b" y1="371.03" y2="447.14"/><linearGradient id="h" x1="264.37" x2="298.32" xlink:href="#b" y1="329.3" y2="329.3"/><linearGradient id="i" x1="241.17" x2="372.98" xlink:href="#b" y1="401.97" y2="360.54"/><linearGradient id="j" x1="355.27" x2="372.99" xlink:href="#b" y1="420.96" y2="420.96"/><linearGradient id="k" x1="258.77" x2="252.36" xlink:href="#b" y1="362.13" y2="300.67"/><linearGradient id="l" x1="256.76" x2="266.87" xlink:href="#b" y1="349.41" y2="312.3"/><linearGradient id="m" x1="252.93" x2="260.92" xlink:href="#b" y1="353.19" y2="323.85"/><linearGradient id="n" gradientTransform="matrix(-1 0 0 1 -446.9 0)" x1="-838.19" x2="-1048.38" xlink:href="#a" y1="276.97" y2="278.64"/><path d="m172.65 493.17c8.79.51 16.88 5.38 26.14 6.63a701.31 701.31 0 0 0 187.86 0c29.29-3.95 57.81-11.47 87.31-13.24 30.27-1.83 61.63 1.29 90.79-8.81 34.85-12.08 60.08-43.71 61.49-77.1 1.35-31.84-16.77-61.38-26.5-92a180.09 180.09 0 0 1 .89-111.52c12.15-36.3 36.12-70.88 33.87-108.71-3.15-52.94-67.6-95.61-125.11-82.86-30.12 6.67-55.39 25.36-85.17 33.15-48.37 12.67-100.34-5-150.42 0-42.54 4.34-81.72 25.29-110.18 53.91s-46.83 64.38-57.93 101.32c-9.79 32.62-14.49 67.12-32.89 96.61-13.48 21.59-34.15 40.29-40.19 64.45-7.08 28.31-28.09 128.51 140.04 138.17z" fill="#68e1fd" opacity=".24" transform="translate(-27.83 -3.29)"/><path d="m105.88 240.48v51.2a21.41 21.41 0 0 0 21.42 21.42h3.85v22.51l11.69-22.51h88.89a21.42 21.42 0 0 0 21.42-21.42v-51.2a21.41 21.41 0 0 0 -21.42-21.42h-104.43a21.41 21.41 0 0 0 -21.42 21.42z" fill="#68e1fd" transform="translate(-27.83 -3.29)"/><path d="m105.88 240.48v51.2a21.41 21.41 0 0 0 21.42 21.42h3.85v22.51l11.69-22.51h88.89a21.42 21.42 0 0 0 21.42-21.42v-51.2a21.41 21.41 0 0 0 -21.42-21.42h-104.43a21.41 21.41 0 0 0 -21.42 21.42z" fill="url(#a)" transform="translate(-27.83 -3.29)"/><path d="m124.86 237.65h109.73v6.13h-109.73z" fill="#68e1fd" transform="matrix(-1 0 0 -1 331.63 478.15)"/><path d="m124.86 253.84h109.73v6.13h-109.73z" fill="#68e1fd" transform="matrix(-1 0 0 -1 331.63 510.53)"/><path d="m124.86 270.03h109.73v6.13h-109.73z" fill="#68e1fd" transform="matrix(-1 0 0 -1 331.63 542.9)"/><ellipse cx="288.92" cy="460.17" fill="url(#b)" rx="166.4" ry="27.52"/><rect fill="#68e1fd" height="409.95" rx="31.11" width="212.22" x="187.7" y="60.1"/><path d="m412.87 98v340.17h-183.47v-340.17a12.91 12.91 0 0 1 12.87-12.87h47.28a10.89 10.89 0 0 0 10.88 10.87h42.65a10.89 10.89 0 0 0 10.92-10.88h46a12.89 12.89 0 0 1 12.87 12.88z" fill="url(#c)" transform="translate(-27.83 -3.29)"/><path d="m209.92 343.04h164.76v83.71h-164.76z" fill="#68e1fd" opacity=".24"/><path d="m209.53 159.02h166.4v160.14h-166.4z" fill="#68e1fd" opacity=".51"/><path d="m280.21 373.93 9.45-9.34 6.34 1.43v1.81l-9.97 10.87-8.41.39z" fill="#606161"/><path d="m288.93 365.93 4.81 1.33-9.13 9.39-3.51.03.59-3.7z" fill="url(#d)"/><g transform="translate(-27.83 -3.29)"><path d="m263.4 404.15s36.39-16.74 43.29-14.06 25.3 35.8 25.3 35.8l-12.99-.26-20.7-17.86-17.6 14.75-25.58-1.52z" fill="#606161"/><path d="m263.4 404.15s36.39-16.74 43.29-14.06 25.3 35.8 25.3 35.8l-12.99-.26-20.7-17.86-17.6 14.75-25.58-1.52z" fill="url(#e)"/><path d="m234.41 429.12s2.46 8.41 9.06 9.32 105.08-1.44 105.08-1.44a6.29 6.29 0 0 0 3.1-4.4c.78-3.37-1.29-7-1.29-7l-82.42-9.53z" fill="#606161"/><path d="m234.41 429.12s2.46 8.41 9.06 9.32 105.08-1.44 105.08-1.44a6.29 6.29 0 0 0 3.1-4.4c.78-3.37-1.29-7-1.29-7l-82.42-9.53z" fill="url(#f)"/><path d="m302.35 382.11a14.86 14.86 0 0 1 7.91 2.41 8.38 8.38 0 0 1 3.7 7.11 1.8 1.8 0 0 1 -.37 1.13 1.53 1.53 0 0 1 -1.09.42c-2.23.07-3.65-2.53-5.81-3.09-1.39-.36-2.85.18-4.28.09a5 5 0 0 1 -4.06-2.69 4.83 4.83 0 0 1 -.1-4.15c.81-1.4 2.61-1.34 4.1-1.23z" fill="#f4a982"/><path d="m278.89 381.46a1 1 0 0 0 .24.73 1 1 0 0 0 .7.16l19.32-.38a18.84 18.84 0 0 1 .07 7.06 2.09 2.09 0 0 1 -.41 1.06 2.3 2.3 0 0 1 -1.47.56 126.09 126.09 0 0 0 -24 5.52 4.64 4.64 0 0 1 -2.5.38c-1.58-.35-2.3-2.17-2.63-3.75-1.11-5.33-.7-10.85-1.33-16.26-.31-2.63-.84-5.42.25-7.84 1-2.24 8.2-7.76 9.72-4.2 1 2.36.93 5.91 1.23 8.45q.54 4.24.81 8.51z" fill="#68e1fd"/><path d="m278.89 381.46a1 1 0 0 0 .24.73 1 1 0 0 0 .7.16l19.32-.38a18.84 18.84 0 0 1 .07 7.06 2.09 2.09 0 0 1 -.41 1.06 2.3 2.3 0 0 1 -1.47.56 126.09 126.09 0 0 0 -24 5.52 4.64 4.64 0 0 1 -2.5.38c-1.58-.35-2.3-2.17-2.63-3.75-1.11-5.33-.7-10.85-1.33-16.26-.31-2.63-.84-5.42.25-7.84 1-2.24 8.2-7.76 9.72-4.2 1 2.36.93 5.91 1.23 8.45q.54 4.24.81 8.51z" fill="url(#g)"/><path d="m302.64 382.25a13 13 0 0 1 7.48-7.11c.78 1.34-1.71 3.2-.65 4.34a1.94 1.94 0 0 0 1.55.38l6.4-.27a.79.79 0 0 1 .57.12.72.72 0 0 1 .2.45 4 4 0 0 1 -1.58 3.34c-1 .85-2.12 1.47-3.06 2.34-1.53 1.41-2.5 3.49-4.38 4.4-1.42.69-3.1.58-4.58 1.11-1.82.66-3.52 2.32-5.38 1.76-.89-.26.11-5.51.56-6.11a20.24 20.24 0 0 0 2.87-4.75z" fill="#f4a982"/><path d="m275.89 350.53a25.22 25.22 0 0 0 3.64 2.7 2.84 2.84 0 0 0 1.68.55 2.79 2.79 0 0 0 1.7-1.07 16.63 16.63 0 0 0 2.84-4.25 1.72 1.72 0 0 1 .39-.62c.6-.53 1.57 0 2.33-.28a1.62 1.62 0 0 0 1-1.36 5.51 5.51 0 0 0 -.13-1.76 15.38 15.38 0 0 1 -.22-3.95c.21-2.11 1.05-4.21.62-6.28a9.31 9.31 0 0 0 -3-4.57 12.42 12.42 0 0 0 -3.32-2.45 11.87 11.87 0 0 0 -4.62-.88 9.16 9.16 0 0 0 -5.56 1.19c-1.55 1.08-2.41 2.88-3.2 4.6l-6.73 14.66a2.54 2.54 0 0 0 -.31 1.24 2.14 2.14 0 0 0 .48 1 15.06 15.06 0 0 0 5.19 4.59c1.16.62 3.21 1.47 4.48.67s1.85-2.71 2.74-3.73z" fill="#f4a982"/><path d="m296.17 331.84a8.69 8.69 0 0 0 1.74-8.34 2.83 2.83 0 0 0 -.7-1.24 3.54 3.54 0 0 0 -1.6-.64 40.2 40.2 0 0 1 -10.93-4.24c-1.91-1.09-3.85-2.37-6-2.44a6 6 0 0 0 -5.61 3.67 4 4 0 0 0 -3.76-.25 6.5 6.5 0 0 0 -2.87 2.6c-1.86 3-1.94 6.68-2 10.18l-.07 11.34a1.61 1.61 0 0 0 .08.62 1.09 1.09 0 0 0 1.24.53 3.09 3.09 0 0 0 1.26-.7c1.47-1.16 2.92-2.34 4.37-3.53a5.06 5.06 0 0 1 .62-6.38 1.5 1.5 0 0 1 .73-.44 1.55 1.55 0 0 1 1.27.57 5.15 5.15 0 0 1 -.13 7.06 6.55 6.55 0 0 0 3.63-3.43 18.65 18.65 0 0 1 2.68-4.36c1.2-1.22 3.19-1.9 4.64-1 2 1.23 2.29 3.28 5 3.28a8.71 8.71 0 0 0 6.41-2.86z" fill="#606161"/><path d="m296.17 331.84a8.69 8.69 0 0 0 1.74-8.34 2.83 2.83 0 0 0 -.7-1.24 3.54 3.54 0 0 0 -1.6-.64 40.2 40.2 0 0 1 -10.93-4.24c-1.91-1.09-3.85-2.37-6-2.44a6 6 0 0 0 -5.61 3.67 4 4 0 0 0 -3.76-.25 6.5 6.5 0 0 0 -2.87 2.6c-1.86 3-1.94 6.68-2 10.18l-.07 11.34a1.61 1.61 0 0 0 .08.62 1.09 1.09 0 0 0 1.24.53 3.09 3.09 0 0 0 1.26-.7c1.47-1.16 2.92-2.34 4.37-3.53a5.06 5.06 0 0 1 .62-6.38 1.5 1.5 0 0 1 .73-.44 1.55 1.55 0 0 1 1.27.57 5.15 5.15 0 0 1 -.13 7.06 6.55 6.55 0 0 0 3.63-3.43 18.65 18.65 0 0 1 2.68-4.36c1.2-1.22 3.19-1.9 4.64-1 2 1.23 2.29 3.28 5 3.28a8.71 8.71 0 0 0 6.41-2.86z" fill="url(#h)"/><path d="m267.85 407.12c.34 3 .88 6.06.09 9-.91 3.34-3.46 6.09-6.35 8.24a33.39 33.39 0 0 1 -19.84 6.41c-3.95 0-8.38-1-10.36-4.23-1.31-2.11-1.24-4.7-1.13-7.14l.57-12.7c.41-9.22.84-18.51 3.19-27.47s6.81-17.67 14.16-23.85a22 22 0 0 1 8.17-4.58c11.33-3.11 23.75 3.84 19.74 15.28-4.92 14.03-9.96 25.83-8.24 41.04z" fill="#68e1fd"/><path d="m250.89 406.38c.17 1-.36 3.58.18 4.45 1.3 2.06 2.33 17.48 4.7 16.89s9.82-8.49 11.73-10c1.66-1.32.6-13.16 0-15.21a7.36 7.36 0 0 0 -1.48-2.3c-2.35-3-2.94-7.06-3-10.89s.32-7.72-.4-11.48c-.76-4-3.24-8.5-7.52-9.39-5.65-1.16-5.72 1.78-4.58 5.65 3.04 10.3-1.37 21.69.37 32.28z" fill="url(#i)"/><path d="m357.85 427.54a4 4 0 0 1 .91 2.81 8.77 8.77 0 0 1 -.07 2.4 3.11 3.11 0 0 1 -1.24 2 4.7 4.7 0 0 1 -2.63.46l-2.37-.06a7.82 7.82 0 0 1 -2.41-.3 2.65 2.65 0 0 1 -1.73-1.58 3.34 3.34 0 0 1 0-1.8c.44-2 1-4.73 3.37-4.75 1.63-.03 4.96-.29 6.17.82z" fill="#f4a982"/><path d="m363.78 409.58a120.63 120.63 0 0 1 -7 12.53 7.67 7.67 0 0 0 -1.55 3.83 11 11 0 0 0 .6 2.75 11.62 11.62 0 0 1 .31 4.47 14.73 14.73 0 0 0 -.27 2.56 2.68 2.68 0 0 0 1.13 2.2 3.62 3.62 0 0 0 1.82.39l7.53.32a4.19 4.19 0 0 0 1.37-.09 3.67 3.67 0 0 0 1.93-1.78c3.55-5.8 2.38-13.2 3.61-19.89.51-2.77 1.45-5.49 1.52-8.31a5.85 5.85 0 0 0 -1.53-4.56c-1.24-1.1-3.55-1-4.25.49" fill="#606161"/><path d="m363.78 409.58a120.63 120.63 0 0 1 -7 12.53 7.67 7.67 0 0 0 -1.55 3.83 11 11 0 0 0 .6 2.75 11.62 11.62 0 0 1 .31 4.47 14.73 14.73 0 0 0 -.27 2.56 2.68 2.68 0 0 0 1.13 2.2 3.62 3.62 0 0 0 1.82.39c2.51.11 2.33-.09 4.84 0a4.48 4.48 0 0 0 1.37-.1 3.67 3.67 0 0 0 1.93-1.78c3.55-5.8 3.24-12.26 4.47-18.95.51-2.77 1.45-5.49 1.52-8.31a5.84 5.84 0 0 0 -1.53-4.56c-1.24-1.11-1.72-1.64-2.42-.14" fill="url(#j)"/><path d="m251.15 368.52s-.17-11 9.66-11.91 11.39 9.49 11.05 12.39 1.55 19.49 1.55 19.49l26.4-1.72 1 7.59s-37.09 11.21-39.16 8.8-4.65-7.04-10.5-34.64z" fill="#68e1fd"/><path d="m240.86 363.76s6.88.62 11.36-1.46 16.55-4.43 20.16-3.51c4.3 1.1 3.91-2 3.91-2l-16.77-5.2s-14.7 5.73-15.95 8.13a22.9 22.9 0 0 1 -2.71 4.04z" fill="url(#k)"/><path d="m263.57 344.71c-1.73-1.6-3.57-3.26-5.87-3.78s-5.15.59-5.66 2.89c-.19.83-.21 1.92-1 2.19-.5.17-1-.12-1.56-.1a2.15 2.15 0 0 0 -1.74 1.39c-.33.72-.45 1.51-.78 2.22-.82 1.81-2.74 2.78-4.24 4.08s-2.66 3.6-1.46 5.18 3.36 1.18 5.13.7c4.41-1.2 8.74-2.8 13.26-3.51s9.37-.46 13.32 1.84c4.34 2.54 4.22-2.47 1.14-4.25-4-2.3-7.11-5.73-10.54-8.85z" fill="#68e1fd"/><path d="m262.68 350.25a9.36 9.36 0 0 1 -3.23-1.05 65.75 65.75 0 0 0 -6.9-2.7.94.94 0 0 1 -.36-.18.83.83 0 0 1 -.22-.47c-.2-1 .08-2.88 1.26-3.05.93-.14 2.73 1.2 3.49 1.67a19.34 19.34 0 0 1 5.96 5.78z" fill="url(#l)"/><path d="m260.07 352c-1.14-.07-1.72 1.25-7.67.08-2.42-.48-2.27-.11-4.62-.88a.94.94 0 0 1 -.36-.18.83.83 0 0 1 -.22-.47c-.2-.95.08-2.88 1.26-3.05.93-.14 2.73 1.2 3.49 1.67 2.37 1.5 3.74 2.7 8.12 2.83z" fill="url(#m)"/></g><circle cx="228.81" cy="138.06" fill="#68e1fd" opacity=".24" r="14.7"/><path d="m250.4 130.24h60.89v7.09h-60.89z" fill="#68e1fd" opacity=".51"/><path d="m250.4 143.69h82.85v3.54h-82.85z" fill="#68e1fd" opacity=".24"/><path d="m422 273c0 24.25 25.24 43.89 56.36 43.89a68.47 68.47 0 0 0 15.54-1.73l24.6 12.59-9.92-17.75c15.71-7.74 26.11-21.37 26.11-37 0-24.26-25.24-43.89-56.37-43.89s-56.32 19.64-56.32 43.89z" fill="#68e1fd" transform="translate(-27.83 -3.29)"/><path d="m420.71 272.38c0 24.26 25.24 43.89 56.36 43.89a68.47 68.47 0 0 0 15.54-1.73l24.6 12.59-9.88-17.79c15.71-7.74 26.11-21.36 26.11-37 0-24.25-25.24-43.89-56.37-43.89s-56.36 19.68-56.36 43.93z" fill="url(#n)" transform="translate(-27.83 -3.29)"/><path d="m457.52 150.48s-7.58-9.94-14.68-.47 16.1 20.84 16.1 20.84 16.58-11.84 14.69-18.94-12.32-9-16.11-1.43z" fill="#fff" transform="translate(-27.83 -3.29)"/><path d="m173.37 175.54s-6.33-8.31-12.26-.4 13.45 17.4 13.45 17.4 13.83-9.89 12.25-15.82a7.23 7.23 0 0 0 -13.44-1.18z" fill="#fff" transform="translate(-27.83 -3.29)"/><path d="m502 179s-10.21-13.4-19.79-.64 21.7 28.08 21.7 28.08 22.34-15.95 19.79-25.52-16.64-12.16-21.7-1.92z" fill="#fff" transform="translate(-27.83 -3.29)"/><path d="m193 143.6s-4.55-6-8.82-.28 9.68 12.52 9.68 12.52 9.95-7.12 8.82-11.38a5.21 5.21 0 0 0 -9.68-.86z" fill="#fff" transform="translate(-27.83 -3.29)"/></svg>