<svg viewBox="0 0 420.22 406.42" xmlns="http://www.w3.org/2000/svg" xmlns:xlink="http://www.w3.org/1999/xlink"><linearGradient id="a" gradientTransform="matrix(-1 0 0 -1 397.09 230.16)" gradientUnits="userSpaceOnUse" x1="200.4" x2="193.36" y1="156.09" y2=".32"><stop offset="0" stop-color="#fff" stop-opacity="0"/><stop offset=".95" stop-color="#fff"/></linearGradient><linearGradient id="b" gradientTransform="matrix(-1 0 0 -1 833.24 229.58)" x1="420.79" x2="518.18" xlink:href="#a" y1="115.42" y2="130.09"/><linearGradient id="c" gradientTransform="matrix(-1 0 0 -1 710.05 130.47)" x1="354" x2="355.76" xlink:href="#a" y1="-18.75" y2="124.99"/><linearGradient id="d" gradientTransform="matrix(-1 0 0 -1 616.43 358.85)" x1="311.92" x2="302.53" xlink:href="#a" y1="260.14" y2="55.38"/><linearGradient id="e" gradientTransform="matrix(1 0 0 -1 -82.88 448.43)" gradientUnits="userSpaceOnUse" x1="261.62" x2="259.72" y1="383.07" y2="281.75"><stop offset="0" stop-color="#fff" stop-opacity="0"/><stop offset=".99" stop-color="#fff"/></linearGradient><linearGradient id="f" x1="255" x2="253.1" xlink:href="#e" y1="383.18" y2="281.87"/><linearGradient id="g" x1="307.07" x2="305.17" xlink:href="#e" y1="382.22" y2="280.9"/><linearGradient id="h" x1="364.93" x2="363.04" xlink:href="#e" y1="381.12" y2="279.82"/><linearGradient id="i" x1="269.97" x2="268.07" xlink:href="#e" y1="382.9" y2="281.59"/><linearGradient id="j" x1="282.11" x2="280.2" xlink:href="#e" y1="382.69" y2="281.37"/><linearGradient id="k" x1="316" x2="314.11" xlink:href="#e" y1="382.05" y2="280.73"/><linearGradient id="l" x1="278.22" x2="276.32" xlink:href="#e" y1="382.75" y2="281.44"/><linearGradient id="m" x1="321.5" x2="319.61" xlink:href="#e" y1="381.94" y2="280.63"/><linearGradient id="n" x1="261.62" x2="259.72" xlink:href="#e" y1="356.88" y2="255.56"/><linearGradient id="o" x1="255" x2="253.1" xlink:href="#e" y1="357.01" y2="255.69"/><linearGradient id="p" x1="307.07" x2="305.17" xlink:href="#e" y1="356.03" y2="254.71"/><linearGradient id="q" x1="364.93" x2="363.04" xlink:href="#e" y1="354.95" y2="253.63"/><linearGradient id="r" x1="269.97" x2="268.07" xlink:href="#e" y1="356.73" y2="255.41"/><linearGradient id="s" x1="282.11" x2="280.2" xlink:href="#e" y1="356.5" y2="255.18"/><linearGradient id="t" x1="316" x2="314.11" xlink:href="#e" y1="355.87" y2="254.55"/><linearGradient id="u" x1="278.22" x2="276.32" xlink:href="#e" y1="356.57" y2="255.26"/><linearGradient id="v" x1="321.5" x2="319.61" xlink:href="#e" y1="355.77" y2="254.45"/><linearGradient id="w" x1="261.62" x2="259.72" xlink:href="#e" y1="330.7" y2="229.39"/><linearGradient id="x" x1="255" x2="253.1" xlink:href="#e" y1="330.83" y2="229.51"/><linearGradient id="y" x1="307.07" x2="305.17" xlink:href="#e" y1="329.85" y2="228.54"/><linearGradient id="z" x1="364.93" x2="363.04" xlink:href="#e" y1="328.77" y2="227.45"/><linearGradient id="A" x1="269.97" x2="268.07" xlink:href="#e" y1="330.55" y2="229.23"/><linearGradient id="B" x1="282.11" x2="280.2" xlink:href="#e" y1="330.32" y2="229"/><linearGradient id="C" x1="316" x2="314.11" xlink:href="#e" y1="329.68" y2="228.36"/><linearGradient id="D" x1="278.22" x2="276.32" xlink:href="#e" y1="330.39" y2="229.07"/><linearGradient id="E" x1="321.5" x2="319.61" xlink:href="#e" y1="329.58" y2="228.26"/><linearGradient id="F" gradientUnits="userSpaceOnUse" x1="333.51" x2="350.87" y1="249.74" y2="249.74"><stop offset="0" stop-color="#e5c6d6"/><stop offset=".42" stop-color="#ead4d0"/><stop offset="1" stop-color="#f0e9cb"/></linearGradient><linearGradient id="G" x1="267.38" x2="284.32" xlink:href="#F" y1="249.25" y2="249.25"/><linearGradient id="H" x1="322.22" x2="330.07" xlink:href="#F" y1="181.36" y2="181.36"/><linearGradient id="I" x1="287.94" x2="295.96" xlink:href="#F" y1="179.86" y2="179.86"/><linearGradient id="J" x1="301.28" x2="317.79" xlink:href="#F" y1="200.39" y2="200.39"/><linearGradient id="K" gradientUnits="userSpaceOnUse" x1="280.58" x2="334.7" y1="279.54" y2="279.54"><stop offset="0" stop-color="#010101" stop-opacity="0"/><stop offset=".95" stop-color="#010101"/></linearGradient><linearGradient id="L" x1="197.45" x2="254.83" xlink:href="#K" y1="246.75" y2="246.75"/><linearGradient id="M" x1="308.92" x2="307.82" xlink:href="#K" y1="236.45" y2="294.75"/><linearGradient id="N" x1="307.68" x2="310.76" xlink:href="#K" y1="333.3" y2="306.9"/><linearGradient id="O" gradientTransform="matrix(-1 0 0 -1 614.1 617.39)" x1="306.62" x2="307.5" xlink:href="#K" y1="291.13" y2="326.77"/><linearGradient id="P" x1="201.67" x2="201.96" xlink:href="#K" y1="322.04" y2="395.67"/><linearGradient id="Q" x1="218.42" x2="227.8" xlink:href="#K" y1="332.91" y2="369"/><linearGradient id="R" x1="194.82" x2="178.98" xlink:href="#K" y1="330.93" y2="369.35"/><linearGradient id="S" x1="207.73" x2="189.25" xlink:href="#K" y1="349.86" y2="403.54"/><path d="m485.93 268c-12.07 17.31-29 30.63-42.39 47-19.66 24-32.38 55.16-59 71.17-12.59 7.56-27.16 10.94-41.44 14.22-22.95 5.28-46.73 10.56-69.86 6.1-17.73-3.41-33.82-12.35-49.58-21.17l-12.47-7c-2.75-1.56-5.53-3.09-8.31-4.65l-8.1-4.54c-23.78-13.4-47.41-27.38-67.45-45.85-22.33-20.5-40.08-47.48-43.77-77.61-4.28-34.82 12.1-71.39 40.92-91.4 15.81-11 34.66-17.12 50.19-28.53 24.51-18 38-46.79 54.83-72.08 31.19-46.89 91.17-69.33 141.68-36 19.63 12.94 34.48 32.16 45.39 53 9.22 17.57 16 36.63 28.26 52.23 14 17.82 34.38 30.16 46.63 49.23 18.35 28.54 13.91 68.02-5.53 95.88z" fill="#68e1fd" opacity=".24" transform="translate(-82.88 -1.75)"/><path d="m226.86 374.7c-1.47 1.61.94 3.85 3 4.63a118.11 118.11 0 0 0 42.1 7.8l-2.45 4.17a131.42 131.42 0 0 0 69 .36l-3.48-5.4 20.21-1c3.21-.15 14.47 1.17 16.6-1.68 6.13-8.21-18.82-8.53-21.5-8.64q-39.93-1.67-79.91-1.29-10.9.1-21.8.35c-3.44.12-19.63-1.58-21.77.7z" fill="#68e1fd" opacity=".42" transform="translate(-82.88 -1.75)"/><path d="m340.48 300.71q-.81 16-1.93 32.06a91.36 91.36 0 0 1 -2.1 16.08 46.85 46.85 0 0 1 -3.32 9.11c-.61 1.25-1.48 2.61-2.85 2.75-1.73.18-2.93-1.67-3.55-3.3-3.09-8-3.09-16.76-3.29-25.32q-.17-6.64-.53-13.29c-.29-5.35-.87-11.14-4.49-15.1-1.1-1.2-2.44-2.18-3.52-3.41-4.41-5-3.09-13.43 1.66-18.14 3.69-3.65 14.4-8.47 19.57-5.45 6.14 3.58 4.64 18.24 4.35 24.01z" fill="#606161" transform="translate(-82.88 -1.75)"/><path d="m309.52 282.4a13.63 13.63 0 0 1 2.07 8.22c-.25 8.69-5.41 16.38-8 24.69-3.88 12.55-1.72 26-1.33 39.17a12.28 12.28 0 0 1 -.66 5.36 4.49 4.49 0 0 1 -4.21 2.88 5.62 5.62 0 0 1 -3.35-2c-6.36-6.8-6.15-17.17-7.2-26.41-1.18-10.29-4.37-20.23-7.09-30.22-1.23-4.51-2.38-9.13-2.09-13.79s2.25-9.45 6.1-12.09c6.99-4.78 20.77-2.96 25.76 4.19z" fill="#606161" transform="translate(-82.88 -1.75)"/><rect fill="#68e1fd" height="147.24" opacity=".52" rx="12.14" transform="matrix(-1 0 0 -1 314.21 228.41)" width="133.54" x="131.77" y="41.46"/><rect fill="url(#a)" height="147.24" rx="12.14" transform="matrix(-1 0 0 -1 314.21 228.41)" width="133.54" x="131.77" y="41.46"/><rect fill="#68e1fd" height="91.01" opacity=".52" rx="11.56" transform="matrix(-1 0 0 -1 750.35 227.83)" width="148.4" x="342.42" y="69.28"/><rect fill="url(#b)" height="91.01" rx="11.56" transform="matrix(-1 0 0 -1 750.35 227.83)" width="148.4" x="342.42" y="69.28"/><rect fill="#68e1fd" height="57.18" opacity=".52" rx="7.26" transform="matrix(-1 0 0 -1 627.16 128.72)" width="93.23" x="308.41" y="36.65"/><rect fill="url(#c)" height="57.18" rx="7.26" transform="matrix(-1 0 0 -1 627.16 128.72)" width="93.23" x="308.41" y="36.65"/><path d="m190.34 257.1h225.69v10.82h-225.69z" fill="#68e1fd" opacity=".52" transform="matrix(-1 0 0 -1 523.5 523.28)"/><rect fill="#68e1fd" height="127.53" rx="12.56" transform="matrix(-1 0 0 -1 533.55 357.1)" width="172.75" x="221.84" y="115.66"/><rect fill="url(#d)" height="127.53" rx="12.56" transform="matrix(-1 0 0 -1 533.55 357.1)" width="172.75" x="221.84" y="115.66"/><path d="m160.2 133.88h34.45v2.53h-34.45z" fill="url(#e)"/><path d="m160.2 138.77h21.03v2.37h-21.03z" fill="url(#f)"/><path d="m189.71 138.77h66.17v2.39h-66.17z" fill="url(#g)"/><path d="m262.07 138.77h37.24v2.39h-37.24z" fill="url(#h)"/><path d="m171.14 143.68h28.91v2.5h-28.91z" fill="url(#i)"/><path d="m180.42 148.56h34.45v2.53h-34.45z" fill="url(#j)"/><path d="m217.12 148.56h28.88v2.81h-28.88z" fill="url(#k)"/><path d="m180.37 153.45h26.6v2.37h-26.6z" fill="url(#l)"/><path d="m209.52 153.45h54.9v2.63h-54.9z" fill="url(#m)"/><path d="m160.2 160.07h34.45v2.53h-34.45z" fill="url(#n)"/><path d="m160.2 164.96h21.03v2.37h-21.03z" fill="url(#o)"/><path d="m189.71 164.96h66.17v2.39h-66.17z" fill="url(#p)"/><path d="m262.07 164.96h37.24v2.39h-37.24z" fill="url(#q)"/><path d="m171.14 169.85h28.91v2.5h-28.91z" fill="url(#r)"/><path d="m180.42 174.75h34.45v2.53h-34.45z" fill="url(#s)"/><path d="m217.12 174.75h28.88v2.81h-28.88z" fill="url(#t)"/><path d="m180.37 179.64h26.6v2.37h-26.6z" fill="url(#u)"/><path d="m209.52 179.64h54.9v2.63h-54.9z" fill="url(#v)"/><path d="m160.2 186.25h34.45v2.53h-34.45z" fill="url(#w)"/><path d="m160.2 191.14h21.03v2.37h-21.03z" fill="url(#x)"/><path d="m189.71 191.14h66.17v2.39h-66.17z" fill="url(#y)"/><path d="m262.07 191.14h37.24v2.39h-37.24z" fill="url(#z)"/><path d="m171.14 196.03h28.91v2.5h-28.91z" fill="url(#A)"/><path d="m180.42 200.92h34.45v2.53h-34.45z" fill="url(#B)"/><path d="m217.12 200.92h28.88v2.81h-28.88z" fill="url(#C)"/><path d="m180.37 205.82h26.6v2.37h-26.6z" fill="url(#D)"/><path d="m209.52 205.82h54.9v2.63h-54.9z" fill="url(#E)"/><g fill="#68e1fd" opacity=".52"><path d="m237.35 42.71h17.14v1.26h-17.14z"/><path d="m237.35 45.15h10.46v1.18h-10.46z"/><path d="m252.03 45.15h32.92v1.19h-32.92z"/><path d="m288.02 45.15h18.53v1.19h-18.53z"/><path d="m242.79 47.58h14.38v1.24h-14.38z"/><path d="m247.41 50.02h17.14v1.26h-17.14z"/><path d="m265.66 50.02h14.36v1.4h-14.36z"/><path d="m247.38 52.45h13.23v1.18h-13.23z"/><path d="m261.89 52.45h27.31v1.31h-27.31z"/><path d="m237.35 55.74h17.14v1.26h-17.14z"/><path d="m237.35 58.17h10.46v1.18h-10.46z"/><path d="m252.03 58.17h32.92v1.19h-32.92z"/><path d="m288.02 58.17h18.53v1.19h-18.53z"/><path d="m242.79 60.6h14.38v1.24h-14.38z"/><path d="m247.41 63.04h17.14v1.26h-17.14z"/><path d="m265.66 63.04h14.36v1.4h-14.36z"/><path d="m247.38 65.47h13.23v1.18h-13.23z"/><path d="m261.89 65.47h27.31v1.31h-27.31z"/><path d="m237.35 68.76h17.14v1.26h-17.14z"/><path d="m237.35 71.2h10.46v1.18h-10.46z"/><path d="m252.03 71.2h32.92v1.19h-32.92z"/><path d="m288.02 71.2h18.53v1.19h-18.53z"/><path d="m242.79 73.63h14.38v1.24h-14.38z"/><path d="m247.41 76.06h17.14v1.26h-17.14z"/><path d="m265.66 76.06h14.36v1.4h-14.36z"/><path d="m247.38 78.5h13.23v1.18h-13.23z"/><path d="m261.89 78.5h27.31v1.31h-27.31z"/></g><g transform="translate(-82.88 -1.75)"><path d="m349.79 250.1c.71 2 1.38 4.1.94 6.16a6 6 0 0 1 -.85 2c-2 3.1-6.74 3.58-10 1.72s-5.1-5.42-6-9a9.67 9.67 0 0 1 -.35-3.7c.29-2.17 1.73-4 3.23-5.6 2-2.08 5.67-4.8 8.36-2.3 2.42 2.24 3.6 7.73 4.67 10.72z" fill="url(#F)"/><path d="m268 249.5a5.14 5.14 0 0 0 -.59 2.69 4.69 4.69 0 0 0 .7 1.68 13.49 13.49 0 0 0 3.31 3.93 6.87 6.87 0 0 0 4.81 1.49c2.56-.28 4.59-2.31 5.95-4.5a12.33 12.33 0 0 0 2.13-7.06 9 9 0 0 0 -3.68-6.74c-1.93-1.4-5.95-2.67-8.13-1.07s-3.41 7-4.5 9.58z" fill="url(#G)"/><path d="m327.06 176.05a2.42 2.42 0 0 1 2.1.37 2.79 2.79 0 0 1 .69 1.71 12.25 12.25 0 0 1 .15 3.87 5.31 5.31 0 0 1 -1.77 3.31 7.66 7.66 0 0 1 -2.52 1.22 2.85 2.85 0 0 1 -2.16.08 2.49 2.49 0 0 1 -1.08-1.85c-.79-3.87.42-7.95 4.59-8.71z" fill="url(#H)"/><path d="m290.65 174.71a2.48 2.48 0 0 0 -1.21 0 2.51 2.51 0 0 0 -1.44 2.29 10.64 10.64 0 0 0 .18 2.81 7.76 7.76 0 0 0 1.82 4.19 3.4 3.4 0 0 0 4.15.72c4.25-2.94.25-9.19-3.5-10.01z" fill="url(#I)"/><path d="m317.57 202.66a8.87 8.87 0 0 1 .16 2.76c-.37 2.56-2.92 4.35-5.48 4.67s-5.12-.54-7.51-1.49a6 6 0 0 1 -2-1.14 4.45 4.45 0 0 1 -1.15-2.21 16.05 16.05 0 0 1 -.26-4.38l.16-5.16a6.18 6.18 0 0 1 .58-2.93c1-1.71 3.29-2 5.28-2.13 2.61-.11 6.54 0 8.26 2.38s1.52 6.86 1.96 9.63z" fill="url(#J)"/><path d="m325.61 160.54a15.29 15.29 0 0 1 .8 6.8 127.36 127.36 0 0 1 -1.66 15.83c-.66 3.93-1.7 8.15-4.81 10.63a19.9 19.9 0 0 0 -2.51 2c-.54.58-.92 1.3-1.42 1.93-2.53 3.17-7.63 3.17-11.11 1.06s-5.71-5.73-7.75-9.25c-2.25-3.88-4.48-7.94-4.88-12.41-.33-3.54.5-7.27-.85-10.56-1-2.42-3.07-4.36-3.53-6.93a11.67 11.67 0 0 1 .62-5.12c.81-2.91 2.05-6.27 5-7.06 2.15-.58 4.37.52 6.6.59 2.84.1 5.73-1.49 8.43-.59 3.47 1.16 5 5.16 8.46 6.46s7 2.94 8.61 6.62z" fill="#606161"/><path d="m337.09 211.79c-10.14-8.41-24.77-8.2-37.82-6.42-5.39.73-10.88 1.7-15.62 4.38-7.94 4.5-12.64 13.2-15.11 22-1.31 4.67-2 10 .62 14.1 2.75 4.24 8.23 5.7 13.25 6.26a4.43 4.43 0 0 1 2.18.63 3.87 3.87 0 0 1 1.22 2.45c1.4 7.3-1.44 15.5 2.31 21.91 3.63 6.19 11.74 7.82 18.89 8.37 9.25.71 19.28.45 26.79-5a10.87 10.87 0 0 0 3.11-3.19c1.24-2.12 1.31-4.7 1.34-7.15.08-5.34-1.87-16.08.73-20.79 2.18-3.92 8.39-3.94 10.57-8.42 4.13-8.52-6.25-23.99-12.46-29.13z" fill="#fff"/><path d="m300.39 279.84.07 11.37a2.19 2.19 0 0 1 -.24 1.27 2 2 0 0 1 -1.34.73c-3.08.72-6.3.31-9.46.32s-6.57.57-8.84 2.78c3.45 2.55 7.9 3.25 12.17 3.75q9.48 1.13 19 1.5a49.21 49.21 0 0 0 12.31-.64 22.83 22.83 0 0 0 9.76-4.55c-2.79-3-7.41-2.94-11.49-2.94a104.74 104.74 0 0 1 -11.88-.68 3.25 3.25 0 0 1 -2.39-1 3.17 3.17 0 0 1 -.38-1.95 39.47 39.47 0 0 1 .95-7.5 4.75 4.75 0 0 1 .95-2.23 5.28 5.28 0 0 1 3.18-1.26 69.35 69.35 0 0 0 13.55-3.7 15.45 15.45 0 0 0 4.95-2.73c3.94-3.58 3.77-9.75 2.86-15a50.31 50.31 0 0 1 -23.82 6.78c-5.73.16-18.16-2.3-22.19 3.22-2 2.79.13 5.37 2.34 7.3.96.82 9.94 5.05 9.94 5.16z" fill="url(#K)"/></g><rect fill="#68e1fd" height="40.67" rx="16.79" width="57.38" x="197.45" y="226.42"/><rect fill="url(#L)" height="40.67" rx="16.79" width="57.38" x="197.45" y="226.42"/><rect fill="#68e1fd" height="40.67" rx="16.79" width="57.38" x="197.45" y="230.16"/><path d="m317.85 254.36a21.93 21.93 0 0 1 -5.38 1.6c-5 .92-10.84.72-14.44-2.91a6.42 6.42 0 0 1 -1.35-1.92c-1-2.43.31-5.36 2.46-6.9s4.88-1.95 7.51-2.08c3.22-.16 9.34-.71 12.15 1.46 3.36 2.6 2.84 8.97-.95 10.75z" fill="url(#M)" transform="translate(-82.88 -1.75)"/><rect fill="#fff" height="64.64" rx="3.91" transform="matrix(-1 0 0 -1 533.26 559.13)" width="7.83" x="304.16" y="248.12"/><path d="m332.15 357.8c2 1.65 2.5 4.51 3.38 7 1.22 3.4 3.48 6.49 3.78 10.09a5.64 5.64 0 0 1 -.51 3.12 5 5 0 0 1 -4.34 2.44 9.5 9.5 0 0 1 -4.93-1.5 17.29 17.29 0 0 1 -6.24-6.41 11 11 0 0 1 -1.42-4.22c-.41-4.51 4.27-15.32 10.28-10.52z" fill="#68e1fd" transform="translate(-82.88 -1.75)"/><path d="m335.88 376.88a1.81 1.81 0 0 1 0 1.71 1.55 1.55 0 0 1 -.87.47 5.6 5.6 0 0 1 -4-.73 16.27 16.27 0 0 1 -3.22-2.59 23.43 23.43 0 0 1 -3.91-4.42 8 8 0 0 1 -1.27-5.65c1.06-5.42 5.84-.56 7.6 1.44a29 29 0 0 1 5.67 9.77z" fill="#606161" transform="translate(-82.88 -1.75)"/><path d="m293 357.91c-2 1.65-2.5 4.51-3.38 7-1.22 3.4-3.48 6.5-3.78 10.09a5.68 5.68 0 0 0 .51 3.13 5 5 0 0 0 4.34 2.43 9.4 9.4 0 0 0 4.93-1.5 17.21 17.21 0 0 0 6.24-6.41 10.94 10.94 0 0 0 1.42-4.22c.4-4.51-4.28-15.36-10.28-10.52z" fill="#68e1fd" transform="translate(-82.88 -1.75)"/><path d="m288.76 377.27a1.84 1.84 0 0 0 0 1.71 1.58 1.58 0 0 0 .88.47 5.71 5.71 0 0 0 4-.73 16.65 16.65 0 0 0 3.21-2.59 23.23 23.23 0 0 0 3.92-4.43 8 8 0 0 0 1.27-5.64c-1.07-5.43-5.84-.57-7.61 1.44a29.12 29.12 0 0 0 -5.67 9.77z" fill="#606161" transform="translate(-82.88 -1.75)"/><path d="m314.43 334a10.54 10.54 0 0 1 -5.17 1 22.68 22.68 0 0 1 -5.88-.43 4.11 4.11 0 0 1 -1.78-.83 4.06 4.06 0 0 1 -1-1.42c-1.63-3.6-3.47-11.06-.94-14.09 2.89-3.48 14.36-4.09 18-.44 3.53 3.42.97 13.74-3.23 16.21z" fill="#68e1fd" transform="translate(-82.88 -1.75)"/><path d="m314.43 334a10.54 10.54 0 0 1 -5.17 1 22.68 22.68 0 0 1 -5.88-.43 4.11 4.11 0 0 1 -1.78-.83 4.06 4.06 0 0 1 -1-1.42c-1.63-3.6-3.47-11.06-.94-14.09 2.89-3.48 14.36-4.09 18-.44 3.53 3.42.97 13.74-3.23 16.21z" fill="url(#N)" transform="translate(-82.88 -1.75)"/><path d="m306.48 334.14h5.22v33.68h-5.22z" fill="#fff" transform="matrix(-1 0 0 -1 535.29 700.22)"/><path d="m329.72 370.63c1.16.95 2.29 2.14 3.78 2.32 1.08.12 2.16-.34 3.26-.34a6.12 6.12 0 0 1 3.85 1.73 6.51 6.51 0 0 1 2.12 3c.81 2.76-1.65 5.78-4.52 6.06s-5.63-1.68-6.89-4.26a9.4 9.4 0 0 0 -1.06-2 5.81 5.81 0 0 0 -1.43-1.12 41.88 41.88 0 0 0 -13.83-5.47c-.85-.17-1.89-.25-2.43.42a2.36 2.36 0 0 0 -.41 1.3 45.72 45.72 0 0 0 -.27 6 2.27 2.27 0 0 0 .21 1.12 4 4 0 0 0 .94.93 3.9 3.9 0 0 1 .52 4.65 7.12 7.12 0 0 1 -3.91 3c-1.92.71-4.34.83-5.77-.64a4.11 4.11 0 0 1 -.75-4.24 6.35 6.35 0 0 1 3-3.26 2.6 2.6 0 0 0 1.18-.9 2.32 2.32 0 0 0 .18-1.2l-.14-4.46a2.15 2.15 0 0 0 -.68-1.85 2 2 0 0 0 -1.3-.19 39 39 0 0 0 -20.3 7.61c1.08.84.89 2.66-.08 3.62a5.26 5.26 0 0 1 -3.82 1.18 7.65 7.65 0 0 1 -4.27-1.25 4.42 4.42 0 0 1 -2-3.84 4.47 4.47 0 0 1 2.67-3.52 8 8 0 0 1 4.53-.49 9.23 9.23 0 0 0 2.39.19 7.23 7.23 0 0 0 2.52-1.05 55.86 55.86 0 0 1 22.53-7c6.64-.59 14.81-.45 20.18 3.95z" fill="#fff" transform="translate(-82.88 -1.75)"/><rect fill="#fff" height="63.19" rx="11.02" transform="matrix(-1 0 0 -1 766.72 407.06)" width="85.21" x="382.19" y="172.81"/><rect fill="#fff" height="35.94" rx="10.67" transform="matrix(-1 0 0 -1 285.9 444.78)" width="97.97" x="135.41" y="205.3"/><path d="m152.62 82.75 24.93-12.84v3.72l-21 10.47v.12l21 10.52v3.72l-24.93-12.84z" fill="#68e1fd" transform="translate(-82.88 -1.75)"/><path d="m181 100.66 15-39h3.65l-15 39z" fill="#68e1fd" transform="translate(-82.88 -1.75)"/><path d="m228 85.81-24.94 12.79v-3.81l21.16-10.52v-.17l-21.16-10.52v-3.67l24.94 12.79z" fill="#68e1fd" transform="translate(-82.88 -1.75)"/><rect fill="#68e1fd" height="25.89" rx="12.55" transform="matrix(-1 0 0 -1 531.22 615.65)" width="83.47" x="265.32" y="295.75"/><rect fill="url(#O)" height="25.89" rx="12.55" transform="matrix(-1 0 0 -1 531.22 615.65)" width="83.47" x="265.32" y="295.75"/><g fill="#68e1fd" opacity=".52"><path d="m308.78 187.41h22.8v1.67h-22.8z"/><path d="m308.78 190.64h13.92v1.57h-13.92z"/><path d="m328.31 190.64h43.79v1.58h-43.79z"/><path d="m316.02 193.89h19.14v1.66h-19.14z"/><path d="m322.16 197.12h22.8v1.67h-22.8z"/><path d="m346.44 197.12h19.11v1.86h-19.11z"/><path d="m322.12 200.36h17.61v1.57h-17.61z"/><path d="m341.42 200.36h36.33v1.74h-36.33z"/><path d="m308.78 204.74h22.8v1.67h-22.8z"/><path d="m308.78 207.97h13.92v1.57h-13.92z"/><path d="m328.31 207.97h43.79v1.58h-43.79z"/><path d="m316.02 211.21h19.14v1.66h-19.14z"/><path d="m322.16 214.45h22.8v1.67h-22.8z"/><path d="m346.44 214.45h19.11v1.86h-19.11z"/><path d="m322.12 217.69h17.61v1.57h-17.61z"/><path d="m341.42 217.69h36.33v1.74h-36.33z"/></g><g fill="#68e1fd" opacity=".52"><path d="m67.64 211.46h22.8v1.67h-22.8z"/><path d="m67.64 214.7h13.92v1.57h-13.92z"/><path d="m87.17 214.7h43.79v1.58h-43.79z"/><path d="m74.88 217.94h19.14v1.66h-19.14z"/><path d="m81.02 221.18h22.8v1.67h-22.8z"/><path d="m105.31 221.18h19.11v1.86h-19.11z"/><path d="m80.99 224.41h17.61v1.57h-17.61z"/><path d="m100.28 224.41h36.33v1.74h-36.33z"/><path d="m67.64 228.79h22.8v1.67h-22.8z"/><path d="m67.64 232.03h13.92v1.57h-13.92z"/><path d="m87.17 232.03h43.79v1.58h-43.79z"/></g><path d="m195.3 328.85c-3.31-6.54-7.36-13.33-6.58-20.62.47-4.41 2.7-8.41 4.88-12.28l9.82-17.41c3 3.9 7.94 6.27 9.92 10.77 3.18 7.23-3 15.23-2.67 23.12.22 6.07 4.25 11.6 4 17.67-.16 4.41-7.14 18.86-12.79 18.31-2.99-.29-4.7-15.86-6.58-19.56z" fill="#68e1fd" transform="translate(-82.88 -1.75)"/><path d="m195.3 328.85c-3.31-6.54-7.36-13.33-6.58-20.62.47-4.41 2.7-8.41 4.88-12.28l9.82-17.41c3 3.9 7.94 6.27 9.92 10.77 3.18 7.23-3 15.23-2.67 23.12.22 6.07 4.25 11.6 4 17.67-.16 4.41-7.14 18.86-12.79 18.31-2.99-.29-4.7-15.86-6.58-19.56z" fill="url(#P)" transform="translate(-82.88 -1.75)"/><path d="m229.11 326.06c2.23 0 5 .45 5.64 2.6.52 1.88-1.13 3.61-2.7 4.77-5.47 4-12.32 7.07-15 13.3-4.45 10.34-17.05 3.71-10.53-5.24 2.7-3.7 5-8.67 8.36-11.76 3.86-3.57 9.26-3.73 14.23-3.67z" fill="#68e1fd" transform="translate(-82.88 -1.75)"/><path d="m229.11 326.06c2.23 0 5 .45 5.64 2.6.52 1.88-1.13 3.61-2.7 4.77-5.47 4-12.32 7.07-15 13.3-4.45 10.34-17.05 3.71-10.53-5.24 2.7-3.7 5-8.67 8.36-11.76 3.86-3.57 9.26-3.73 14.23-3.67z" fill="url(#Q)" transform="translate(-82.88 -1.75)"/><path d="m196.44 330.84c-2.51-2.86-6.24-4.27-9.8-5.59-1.69-.62-3.86-1.13-5 .23a3.14 3.14 0 0 0 0 3.63 11.34 11.34 0 0 0 2.83 2.65 17.86 17.86 0 0 1 5.25 6.09c1.27 2.59 1.61 5.54 2.74 8.2s3.49 5.17 6.37 5.05a5.74 5.74 0 0 0 4.92-4.05c1.12-3.45-.37-5-2.22-7.44-2.05-2.71-2.8-6.18-5.09-8.77z" fill="#68e1fd" transform="translate(-82.88 -1.75)"/><path d="m196.44 330.84c-2.51-2.86-6.24-4.27-9.8-5.59-1.69-.62-3.86-1.13-5 .23a3.14 3.14 0 0 0 0 3.63 11.34 11.34 0 0 0 2.83 2.65 17.86 17.86 0 0 1 5.25 6.09c1.27 2.59 1.61 5.54 2.74 8.2s3.49 5.17 6.37 5.05a5.74 5.74 0 0 0 4.92-4.05c1.12-3.45-.37-5-2.22-7.44-2.05-2.71-2.8-6.18-5.09-8.77z" fill="url(#R)" transform="translate(-82.88 -1.75)"/><path d="m218.15 346.82-3.37 31.53h-3.57c-2.75-1.56-5.53-3.09-8.31-4.65l-8.1-4.54-2.87-22.34z" fill="#68e1fd" transform="translate(-82.88 -1.75)"/><path d="m218.15 346.82-3.37 31.53h-3.57c-2.75-1.56-5.53-3.09-8.31-4.65l-8.1-4.54-2.87-22.34z" fill="url(#S)" transform="translate(-82.88 -1.75)"/></svg>